<?xml version="1.0" encoding="UTF-8" standalone="no"?>
<svg
   xmlns:dc="http://purl.org/dc/elements/1.1/"
   xmlns:cc="http://creativecommons.org/ns#"
   xmlns:rdf="http://www.w3.org/1999/02/22-rdf-syntax-ns#"
   xmlns:svg="http://www.w3.org/2000/svg"
   xmlns="http://www.w3.org/2000/svg"
   xmlns:sodipodi="http://sodipodi.sourceforge.net/DTD/sodipodi-0.dtd"
   xmlns:inkscape="http://www.inkscape.org/namespaces/inkscape"
   width="100%"
   height="100%"
   viewBox="0 0 500 500"
   version="1.1"
   xml:space="preserve"
   style="fill-rule:evenodd;clip-rule:evenodd;stroke-linecap:round;stroke-linejoin:round;stroke-miterlimit:1.41421;"
   id="svg2"
   inkscape:version="0.91 r13725"
   sodipodi:docname="home_2.svg"><metadata
     id="metadata16"><rdf:RDF><cc:Work
         rdf:about=""><dc:format>image/svg+xml</dc:format><dc:type
           rdf:resource="http://purl.org/dc/dcmitype/StillImage" /></cc:Work></rdf:RDF></metadata><defs
     id="defs14" /><sodipodi:namedview
     pagecolor="#ffffff"
     bordercolor="#666666"
     borderopacity="1"
     objecttolerance="10"
     gridtolerance="10"
     guidetolerance="10"
     inkscape:pageopacity="0"
     inkscape:pageshadow="2"
     inkscape:window-width="1920"
     inkscape:window-height="1123"
     id="namedview12"
     showgrid="false"
     inkscape:zoom="0.472"
     inkscape:cx="-125"
     inkscape:cy="250"
     inkscape:window-x="0"
     inkscape:window-y="25"
     inkscape:window-maximized="1"
     inkscape:current-layer="svg2" /><g
     transform="matrix(7.73557,0,0,7.73557,17.929,17.9329)"
     id="g4"
     style="fill:none;stroke-width:1.07994627;stroke-miterlimit:1.41420996;stroke-dasharray:none;stroke:#00406a;stroke-opacity:1"><path
       d="M7.001,26.382L7.001,58C7.001,58.55 7.451,59 8.001,59L19.001,59C19.551,59 20.001,58.55 20.001,58L20.001,39C20.001,38.45 20.451,38 21.001,38L39.001,38C39.551,38 40.001,38.45 40.001,39L40.001,58C40.001,58.55 40.451,59 41.001,59L52.001,59C52.551,59 53.001,58.55 53.001,58L53.001,26.382"
       style="fill:none;stroke:#00406a;stroke-width:1.07994627;stroke-miterlimit:1.41420996;stroke-dasharray:none;stroke-opacity:1"
       id="path6" /></g><g
     transform="matrix(7.73557,0,0,7.73557,17.929,17.9329)"
     id="g8"
     style="stroke:#00406a;stroke-opacity:1"><path
       d="M1,33L30.001,1L59.001,33"
       style="fill:none;stroke:#00406a;stroke-width:1.07994627;stroke-miterlimit:1.41420996;stroke-dasharray:none;stroke-opacity:1"
       id="path10" /></g></svg>